<svg xmlns="http://www.w3.org/2000/svg" shape-rendering="geometricPrecision" text-rendering="geometricPrecision" image-rendering="optimizeQuality" fill-rule="evenodd" clip-rule="evenodd" viewBox="0 0 504 511.758"><circle fill="#FFD337" transform="matrix(1.9066 -1.9066 1.9066 1.9066 252 252)" r="93.46"/><path fill="#40270E" d="M195.842 230.116c-29.984-23.338-58.624-22.989-85.931-.256-12.309 10.249-17.786 4.528-12.226-9.396 5.53-13.846 12.471-25.627 21.257-34.708 37.107-38.35 71.019-4.09 87.254 34.03 5.185 12.173 2.49 20.328-10.354 10.33zM95.536 306.211c62.219 20.021 246.105 23.479 312.93-.169-.046 175.149-312.976 190.24-312.93.169zM395.652 230.117c-29.984-23.338-58.624-22.99-85.93-.256-12.31 10.247-17.786 4.527-12.226-9.397 5.53-13.845 12.471-25.627 21.257-34.708 37.106-38.35 71.019-4.089 87.254 34.03 5.185 12.172 2.49 20.328-10.355 10.331z"/><path fill="#FF4081" d="M175.282 319.255c47.896 3.495 105.979 4.625 153.442.61-.479 17.991.254 34.075-.076 52.138.465 48.799 1.868 128.153-58.09 138.213a112.438 112.438 0 01-37.115 0c-59.914-10.055-58.557-89.339-58.09-138.108-.333-18.01.391-34.917-.071-52.853z"/><path fill="#E62B6B" d="M243.89 322.274c5.435.097 10.83.122 16.221.141v76.805c0 4.447-3.665 8.109-8.109 8.109h-.003c-4.447 0-8.109-3.647-8.109-8.109v-76.946z"/></svg>